<svg width="230" height="230" viewBox="0 0 230 230" fill="none" xmlns="http://www.w3.org/2000/svg">
<path d="M172.133 143.96C171.402 143.046 170.562 142.226 169.631 141.517C168.679 140.773 167.651 140.131 166.565 139.602C164.326 138.509 161.915 137.81 159.438 137.534C158.176 137.395 156.907 137.333 155.638 137.348C154.355 137.377 153.065 137.489 151.772 137.647C150.48 137.802 149.185 138.033 147.89 138.292C147.242 138.418 146.594 138.569 145.945 138.709L144.001 139.194C141.265 139.912 138.426 140.696 135.781 141.558C133.101 142.441 130.488 143.526 127.784 144.645C125.934 145.428 124.044 146.116 122.122 146.704C120.116 147.282 118.055 147.655 115.973 147.819C113.912 147.965 111.841 147.942 109.783 147.752L108.272 147.573L107.516 147.483C107.385 147.466 107.275 147.456 107.128 147.429L106.659 147.33C106.059 147.201 105.469 147.028 104.894 146.812C104.365 146.586 103.816 146.371 103.33 146.102C101.403 145.079 99.6366 143.778 98.0873 142.242C96.4536 140.694 95.1165 138.861 94.1418 136.832L93.8 135.964C93.6944 135.666 93.6059 135.362 93.5347 135.055C93.4972 134.905 93.4507 134.737 93.4231 134.603L93.3471 134.212L93.1967 133.43C93.1073 132.902 93.0564 132.353 92.9879 131.815C92.9513 131.278 92.9212 130.74 92.8974 130.203C92.8657 128.1 93.0398 125.998 93.4174 123.929C94.1921 119.937 95.4327 116.049 97.1138 112.347C98.7402 108.711 100.622 105.195 102.746 101.825C106.963 95.155 111.799 88.8972 117.189 83.134C118.013 82.2501 118.844 81.3609 119.69 80.5076L120.957 79.2256L122.091 78.0046C123.591 76.3902 124.927 74.6317 126.08 72.7546C127.201 70.9524 128.06 69.001 128.634 66.9582C129.201 65.0186 129.368 62.984 129.124 60.9779C128.665 57.0265 126.03 53.5526 122.412 51.3683C120.557 50.2585 118.535 49.4556 116.423 48.9907C114.261 48.4994 112.05 48.2522 109.832 48.254C109.272 48.2684 108.713 48.2335 108.152 48.2884L106.471 48.4069C105.351 48.5541 104.238 48.6687 103.1 48.9072C101.973 49.1036 100.825 49.3612 99.6856 49.5931C98.5484 49.841 97.3899 50.031 96.2862 50.371L92.942 51.3013C91.8415 51.6584 90.7531 52.0549 89.6576 52.4288C89.1132 52.6249 88.5582 52.7928 88.0222 53.0117L86.4191 53.681L84.8156 54.3493C84.28 54.5696 83.7435 54.7879 83.2291 55.056L80.1074 56.584C79.5799 56.8247 79.0835 57.1253 78.5779 57.4083L77.0648 58.2639L75.5514 59.1188C75.0548 59.4171 74.5754 59.7438 74.0864 60.0546C73.1171 60.6898 72.1296 61.2985 71.1743 61.9541C62.7646 67.8318 55.4486 75.136 49.5571 83.536C47.9797 85.6772 46.8406 87.5449 45.7372 88.991L45.3376 89.5206L44.9855 90.0358C44.7544 90.368 44.5302 90.6785 44.3131 90.9672C43.8789 91.5454 43.4724 92.0396 43.0931 92.4588C41.9878 93.6797 41.5574 93.4984 41.817 92.0954C42.0392 91.077 42.3423 90.078 42.7232 89.1077C42.8468 88.7903 42.9604 88.4442 43.1226 88.102C43.2871 87.7606 43.4599 87.4019 43.6411 87.026C44.0103 86.2773 44.4264 85.4682 44.8894 84.5986C47.4624 80.0897 50.5213 75.8759 54.0114 72.0328C62.0218 63.3023 71.7034 56.2687 82.4822 51.3488C87.8662 48.9305 93.4899 47.0862 99.2604 45.8463L101.413 45.3729L103.596 44.9401C104.336 44.8221 105.086 44.7239 105.832 44.6156C106.581 44.525 107.337 44.4789 108.091 44.4093C111.147 44.1779 114.221 44.3574 117.23 44.9429C118.064 45.1358 118.911 45.2942 119.74 45.5685C120.155 45.6996 120.578 45.8045 120.989 45.9601L122.222 46.4311C123.895 47.0842 125.48 47.9408 126.944 48.9816C127.321 49.2372 127.682 49.516 128.025 49.8164C128.384 50.0991 128.728 50.4024 129.053 50.7247L130.019 51.7068L130.89 52.7803C131.998 54.2457 132.856 55.8837 133.431 57.6283C134.279 60.3717 134.479 63.2744 134.016 66.1083C133.55 68.8254 132.629 71.4445 131.291 73.855L130.813 74.7465C130.642 75.0349 130.459 75.3142 130.283 75.5983C129.92 76.158 129.59 76.746 129.186 77.2697C128.796 77.8049 128.412 78.3473 128.014 78.8751L126.76 80.3998C126.355 80.9199 125.884 81.3787 125.446 81.8684C125.001 82.3468 124.547 82.8515 124.123 83.2721C123.256 84.1489 122.409 85.0347 121.569 85.9217C118.215 89.4786 115.06 93.218 112.118 97.1227C109.186 100.996 106.516 105.061 104.127 109.291C102.366 112.396 100.876 115.647 99.6738 119.009C98.4714 122.269 97.7853 125.697 97.6403 129.169C97.6265 130.002 97.6653 130.835 97.7565 131.662C97.8159 132.07 97.841 132.473 97.9398 132.888L98.0636 133.507L98.0944 133.662L98.1283 133.784L98.1934 134.025L98.2544 134.266L98.351 134.504C98.42 134.663 98.4674 134.822 98.5484 134.984C98.712 135.32 98.8944 135.646 99.0948 135.962C99.5207 136.635 100.001 137.272 100.532 137.867C101.638 139.09 102.893 140.171 104.267 141.083C104.928 141.513 105.623 141.889 106.344 142.207C106.677 142.353 107.017 142.481 107.364 142.588L107.841 142.698C107.882 142.708 107.916 142.719 107.964 142.728L108.127 142.751L108.454 142.801C111.496 143.365 114.602 143.491 117.68 143.175C120.7 142.814 123.653 141.823 126.72 140.651C129.774 139.483 132.957 138.284 136.205 137.365L137.423 137.017L138.621 136.696L141.03 136.065C142.643 135.652 144.271 135.261 145.919 134.915C149.244 134.172 152.636 133.769 156.043 133.712C159.528 133.64 162.997 134.204 166.279 135.376C169.653 136.524 172.687 138.495 175.106 141.112C176.312 142.46 177.305 143.983 178.053 145.63C178.432 146.463 178.74 147.328 178.972 148.214C179.194 149.108 179.334 150.02 179.392 150.939C179.47 152.357 179.388 153.78 179.148 155.179C178.931 156.534 178.618 157.819 178.295 159.062C177.639 161.545 176.989 163.886 176.549 166.222C175.715 170.74 175.555 175.358 176.074 179.923C176.169 180.688 176.184 181.461 176.119 182.228C176.041 182.747 175.874 183.012 175.637 183.005C175.399 182.997 175.096 182.715 174.751 182.139C174.287 181.308 173.932 180.421 173.695 179.499C173.23 177.774 172.879 176.02 172.644 174.249C172.417 172.425 172.333 170.585 172.393 168.748C172.458 166.901 172.651 165.061 172.97 163.241C173.277 161.436 173.687 159.687 174.064 158.018C174.218 157.329 174.373 156.657 174.502 155.996C174.657 155.337 174.77 154.694 174.874 154.062C175.079 152.871 175.13 151.659 175.025 150.455C174.907 149.284 174.603 148.14 174.124 147.065C173.631 145.944 172.99 144.894 172.218 143.944L172.133 143.96Z" fill="#E8B8B8"/>
<path d="M187.294 172.685C186.354 173.77 185.465 174.912 184.606 176.106C184.13 176.731 183.703 177.392 183.33 178.083C182.089 180.545 180.868 183.114 179.456 185.582C179.223 185.989 178.9 186.336 178.512 186.599C178.125 186.862 177.682 187.033 177.218 187.099C176.755 187.165 176.282 187.124 175.836 186.979C175.391 186.835 174.984 186.591 174.647 186.265L174.39 186.013L171.331 183.021C169.527 181.248 167.72 179.519 165.852 177.873C163.988 176.221 162.052 174.651 160.035 173.116C159.433 172.605 158.91 172.008 158.481 171.345C158.033 170.721 158.132 169.774 158.526 168.722C159.099 167.19 160.436 166.078 161.532 166.383C162.215 166.601 162.832 166.989 163.324 167.51C165.676 169.777 168.255 171.795 171.021 173.532C171.791 174.026 172.656 174.485 173.139 175.251C174.674 177.685 176.911 179.381 178.577 181.602L178.839 181.944L174.384 182.322C175.502 180.865 176.428 179.275 177.466 177.732C179.449 174.779 181.509 171.695 183.751 168.745C184.191 168.157 184.737 167.657 185.361 167.27C186.053 166.879 186.814 166.629 187.602 166.534C187.767 166.497 187.938 166.5 188.102 166.541C188.265 166.583 188.417 166.662 188.544 166.773C188.843 167.061 189.043 167.436 189.116 167.844L189.168 168.303C189.166 168.434 189.153 168.565 189.128 168.693C189.099 168.944 189.055 169.192 188.996 169.437C188.848 169.882 188.676 170.318 188.481 170.744C188.111 171.405 187.689 172.035 187.219 172.628L187.294 172.685Z" fill="#E8B8B8"/>
</svg>
