<svg width="234" height="194" viewBox="0 0 234 194" fill="none" xmlns="http://www.w3.org/2000/svg">
<path d="M28.8053 146.19C27.3152 140.546 29.7915 135.728 33.7029 131.631C40.1715 124.856 46.6172 119.176 54.6397 114.218C65.039 107.791 74.0903 99.9132 83.1535 91.8138C88.7144 86.8443 94.0503 81.6734 99.6979 76.7873C105.908 71.4147 110.406 63.9279 116.13 57.9948C127.603 46.1015 134.299 25.1202 124.976 10.035C122.4 5.86783 117.796 4.24215 114.09 8.15517C108.229 14.3416 105.626 22.9387 104.187 31.2046C101.473 46.7993 99.733 62.0815 99.6592 77.9477C99.5672 97.7232 100.821 117.977 99.5642 137.706C99.1101 144.833 98.3582 151.979 95.9925 158.739C95.0421 161.455 94.1738 165.342 92.4602 167.723C92.1848 168.106 92.4211 161.228 92.6335 160.393C94.1566 154.402 96.8908 148.608 98.9928 142.803C102.044 134.377 105.282 125.906 109.809 118.132C113.997 110.938 119.984 104.932 125.468 98.738C130.665 92.8685 140.287 86.6909 143.484 97.1254C147.95 111.7 144.815 133.456 147.15 148.495C147.911 153.397 148.661 161.097 154.307 162.823C161.129 164.909 174.416 150.557 178.718 144.852" stroke="#F5F1EA" stroke-width="5" stroke-linecap="round"/>
<path d="M173.06 151.493C173.06 151.493 176.988 147.191 180.308 142.795C185.745 135.597 189.305 126.502 192.601 118.021C195.545 110.444 197.122 102.384 199.423 94.6344C199.924 92.9473 201.748 87.0531 197.901 88.2885C194.983 89.2255 193.273 94.3712 192.602 96.972C190.127 106.57 191.087 118.226 191.15 128.065C191.236 141.339 193.057 156.834 198.174 169.19C205.369 186.562 222.056 172.508 231.45 165.695" stroke="#F5F1EA" stroke-width="5" stroke-linecap="round"/>
<path d="M195.206 68.2345C192.714 69.1735 193.291 73.8086 194.655 75.2277C198.191 78.906 204.331 70.7277 205.1 67.8354C205.684 65.6398 205.706 59.9285 201.683 60.9908C198.069 61.945 195.879 67.5513 194.406 70.3132" stroke="#F5F1EA" stroke-width="5" stroke-linecap="round"/>
</svg>
